# xmcd CD database file
# Copyright (C) 1993-1998 Ti Kan
#
# Track frame offsets:
# 183
# 13305
# 24243
# 38908
# 51480
# 65803
# 80610
# 96715
# 107818
# 121540
# 132510
# 144128
# 158633
# 170503
# 183735
# 196025
#
# Disc length: 2784 seconds
#
# Revision: 2
# Processed by: cddbd v1.4b41PL1 Copyright (c) Steve Scherf et al.
# Submitted via: inCDius 1.1b8
#
DISCID=e00ade10
DTITLE=The Meters - The Original Funkmasters
DYEAR=1900
DGENRE=
TTITLE0=Sophisticated Cissy
TTITLE1=Funky Miracle
TTITLE2=Look-Ka Py Py
TTITLE3=9 Till 5
TTITLE4=Ease Back
TTITLE5=Ride Your Pony
TTITLE6=Stormy
TTITLE7=Dry Spell
TTITLE8=Cissy Strut
TTITLE9=Tippi-Toes
TTITLE10=Chicken Strut
TTITLE11=I Need More Time
TTITLE12=Live Wire
TTITLE13=Handclapping Song
TTITLE14=A Message From The Meters
TTITLE15=Here Comes The Metermen
EXTD=
EXTT0=
EXTT1=
EXTT2=
EXTT3=
EXTT4=
EXTT5=
EXTT6=
EXTT7=
EXTT8=
EXTT9=
EXTT10=
EXTT11=
EXTT12=
EXTT13=
EXTT14=
EXTT15=
PLAYORDER=
